<svg width="1080" height="330" viewBox="0 0 1080 330" fill="none" xmlns="http://www.w3.org/2000/svg" role="img" aria-label="One idea, split across an agent team on isolated worktrees, merged with guidance, shipped.">
  <defs>
    <linearGradient id="accent" x1="0" y1="0" x2="1" y2="1">
      <stop offset="0" stop-color="#065f46"/><stop offset="1" stop-color="#10b981"/>
    </linearGradient>
    <linearGradient id="merge" x1="0" y1="0" x2="1" y2="1">
      <stop offset="0" stop-color="#155e75"/><stop offset="1" stop-color="#06b6d4"/>
    </linearGradient>
    <marker id="arr" viewBox="0 0 10 10" refX="8" refY="5" markerWidth="7" markerHeight="7" orient="auto-start-reverse">
      <path d="M0,0 L10,5 L0,10 z" fill="#8b949e"/>
    </marker>
  </defs>

  <g>
    <rect x="20" y="135" width="170" height="60" rx="30" fill="url(#accent)"/>
    <text x="105" y="172" text-anchor="middle" font-family="-apple-system,BlinkMacSystemFont,'Segoe UI',Helvetica,Arial,sans-serif" font-size="16.5" font-weight="700" fill="#ffffff">💡 One idea</text>
  </g>
  
    <g>
      <rect x="340" y="30" width="230" height="66" rx="14" fill="#161b22" stroke="#30363d" stroke-width="1.5"/>
      <rect x="340" y="30" width="4" height="66" rx="2" fill="#0e7490"/>
      <text x="455" y="58" text-anchor="middle" font-family="-apple-system,BlinkMacSystemFont,'Segoe UI',Helvetica,Arial,sans-serif" font-size="15.5" font-weight="600" fill="#e6edf3">🤖 Agent A</text>
      <text x="455" y="79" text-anchor="middle" font-family="ui-monospace,SFMono-Regular,'SF Mono',Menlo,Consolas,monospace" font-size="12" fill="#7d8590">isolated git worktree</text>
    </g>
    <g>
      <rect x="340" y="132" width="230" height="66" rx="14" fill="#161b22" stroke="#30363d" stroke-width="1.5"/>
      <rect x="340" y="132" width="4" height="66" rx="2" fill="#0e7490"/>
      <text x="455" y="160" text-anchor="middle" font-family="-apple-system,BlinkMacSystemFont,'Segoe UI',Helvetica,Arial,sans-serif" font-size="15.5" font-weight="600" fill="#e6edf3">🤖 Agent B</text>
      <text x="455" y="181" text-anchor="middle" font-family="ui-monospace,SFMono-Regular,'SF Mono',Menlo,Consolas,monospace" font-size="12" fill="#7d8590">isolated git worktree</text>
    </g>
    <g>
      <rect x="340" y="234" width="230" height="66" rx="14" fill="#161b22" stroke="#30363d" stroke-width="1.5"/>
      <rect x="340" y="234" width="4" height="66" rx="2" fill="#0e7490"/>
      <text x="455" y="262" text-anchor="middle" font-family="-apple-system,BlinkMacSystemFont,'Segoe UI',Helvetica,Arial,sans-serif" font-size="15.5" font-weight="600" fill="#e6edf3">🤖 Agent C</text>
      <text x="455" y="283" text-anchor="middle" font-family="ui-monospace,SFMono-Regular,'SF Mono',Menlo,Consolas,monospace" font-size="12" fill="#7d8590">isolated git worktree</text>
    </g>
  <g>
    <rect x="720" y="132" width="190" height="66" rx="14" fill="url(#merge)"/>
    <text x="815" y="160" text-anchor="middle" font-family="-apple-system,BlinkMacSystemFont,'Segoe UI',Helvetica,Arial,sans-serif" font-size="15.5" font-weight="700" fill="#ffffff">🔀 Guided merge</text>
    <text x="815" y="181" text-anchor="middle" font-family="ui-monospace,SFMono-Regular,'SF Mono',Menlo,Consolas,monospace" font-size="12" fill="#cffafe">conflicts predicted early</text>
  </g>
  <g>
    <rect x="950" y="135" width="110" height="60" rx="30" fill="url(#accent)"/>
    <text x="1005" y="172" text-anchor="middle" font-family="-apple-system,BlinkMacSystemFont,'Segoe UI',Helvetica,Arial,sans-serif" font-size="16.5" font-weight="700" fill="#ffffff">🚀 Ship</text>
  </g>
  <path d="M 190 165 C 265 165, 265 63, 336 63" stroke="#8b949e" stroke-width="1.8" fill="none" marker-end="url(#arr)"/><path d="M 570 63 C 645 63, 645 165, 716 165" stroke="#8b949e" stroke-width="1.8" fill="none" marker-end="url(#arr)"/><path d="M 190 165 C 265 165, 265 165, 336 165" stroke="#8b949e" stroke-width="1.8" fill="none" marker-end="url(#arr)"/><path d="M 570 165 C 645 165, 645 165, 716 165" stroke="#8b949e" stroke-width="1.8" fill="none" marker-end="url(#arr)"/><path d="M 190 165 C 265 165, 265 267, 336 267" stroke="#8b949e" stroke-width="1.8" fill="none" marker-end="url(#arr)"/><path d="M 570 267 C 645 267, 645 165, 716 165" stroke="#8b949e" stroke-width="1.8" fill="none" marker-end="url(#arr)"/><path d="M 910 165 L 946 165" stroke="#8b949e" stroke-width="1.8" fill="none" marker-end="url(#arr)"/>
</svg>